<svg width="64" height="64" viewBox="0 0 64 64" fill="none" xmlns="http://www.w3.org/2000/svg">
<path d="M27.8576 36.9831C28.9701 35.0622 31.6501 34.8008 33.1102 36.4779L44.9826 50.0821C45.122 50.2534 45.0727 50.4283 45.0321 50.5143C44.9914 50.6048 44.8825 50.7539 44.6519 50.7539H39.9384L39.9332 50.7643H4.95659C4.78104 50.7635 4.73752 50.515 4.90451 50.4518L21.4175 44.4024C23.1762 43.7604 24.6568 42.5176 25.5972 40.8946L27.8576 36.9831Z" fill="url(#paint0_linear_86_269)"/>
<path d="M58.6675 21.431H52.0009V42.7643H58.6675V50.7643H50.6675L41.3342 33.431V21.431H34.6675V13.431H58.6675V21.431Z" fill="url(#paint1_linear_86_269)"/>
<path d="M20.717 17.0821C20.812 16.9193 21.0655 17.0288 21.0113 17.2097L17.9097 27.5716C17.2771 29.6827 17.5456 31.9609 18.6441 33.8685L20.993 37.9466C21.9967 39.6918 21.1928 41.9171 19.3029 42.6133L3.54253 48.4076L3.49305 48.431C3.26247 48.526 3.1043 48.4256 3.01388 48.3216C2.92369 48.2177 2.84291 48.0518 2.9644 47.8399L20.717 17.0821Z" fill="url(#paint2_linear_86_269)"/>
<path d="M25.0035 13.1211C25.1029 13.1121 25.2948 13.1215 25.4123 13.3295L28.1727 18.1159H28.1779L42.8134 43.4701C42.9126 43.637 42.6823 43.8008 42.5555 43.6576L33.8029 33.6237C32.2839 31.8786 30.0813 30.8789 27.7665 30.8789H23.7691C21.5995 30.8783 20.0411 28.7857 20.6649 26.7018L24.6519 13.405C24.7242 13.1848 24.9039 13.1304 25.0035 13.1211Z" fill="url(#paint3_linear_86_269)"/>
<defs>
<linearGradient id="paint0_linear_86_269" x1="2.90277" y1="50.7643" x2="26.8472" y2="4.24992" gradientUnits="userSpaceOnUse">
<stop stop-color="#F5C400"/>
<stop offset="0.5" stop-color="#E07010"/>
<stop offset="1" stop-color="#3A54A8"/>
</linearGradient>
<linearGradient id="paint1_linear_86_269" x1="2.90277" y1="50.7643" x2="26.8472" y2="4.24992" gradientUnits="userSpaceOnUse">
<stop stop-color="#F5C400"/>
<stop offset="0.5" stop-color="#E07010"/>
<stop offset="1" stop-color="#3A54A8"/>
</linearGradient>
<linearGradient id="paint2_linear_86_269" x1="2.90277" y1="50.7643" x2="26.8472" y2="4.24992" gradientUnits="userSpaceOnUse">
<stop stop-color="#F5C400"/>
<stop offset="0.5" stop-color="#E07010"/>
<stop offset="1" stop-color="#3A54A8"/>
</linearGradient>
<linearGradient id="paint3_linear_86_269" x1="2.90277" y1="50.7643" x2="26.8472" y2="4.24992" gradientUnits="userSpaceOnUse">
<stop stop-color="#F5C400"/>
<stop offset="0.5" stop-color="#E07010"/>
<stop offset="1" stop-color="#3A54A8"/>
</linearGradient>
</defs>
</svg>
