<svg width="77" height="77" viewBox="0 0 77 77" fill="none" xmlns="http://www.w3.org/2000/svg">
<path d="M62.9505 25.9408L62.7023 26.4241L59.3484 32.9663L66.0018 44.4916L65.7021 44.9956L61.653 51.8011L61.3634 52.2877L60.798 52.2895L53.5878 52.3215L46.5606 65.1216L46.2604 65.6682L45.637 65.6398L36.945 65.2324L36.3989 65.2077L33.2291 59.7171L19.102 59.4336L18.5378 59.4221L13.6435 50.9448L13.8624 50.4734L16.2755 45.277L9.57969 33.6792L9.78306 33.2161L13.1594 25.5218L13.367 25.0504L13.8699 24.9448L21.7125 23.2968L29.3496 11.2944L29.6987 10.7458L30.3415 10.8423L38.9009 12.124L39.3769 12.1953L42.8305 18.1763L57.2521 17.1917L57.8748 17.1487L62.9505 25.9408ZM16.5018 51.8951L19.7065 57.4456L33.8331 57.7283L34.3973 57.7397L37.5839 63.2601L43.903 63.5559L40.2437 57.2178L40.4731 56.7412L42.8124 51.8936L16.5018 51.8951ZM47.7309 34.781C46.1248 33.0942 43.8017 32.1269 41.3591 32.1269L37.1397 32.1268C34.8449 32.1268 33.1986 30.0982 33.8567 28.0846L37.3597 17.3849L34.2756 22.5383L32.19 28.8358C31.5321 30.8205 31.8082 32.9627 32.9527 34.7583L35.3995 38.5949C36.4458 40.2348 35.6052 42.3299 33.6398 42.9832L17.2454 48.434L17.19 48.4537C17.1158 48.4818 17.0492 48.4902 16.9894 48.4878L16.3368 49.8938L19.719 49.8928L35.5104 44.7581C37.2889 44.1799 38.7835 43.0662 39.7323 41.6109L42.0176 38.1054C43.1428 36.3788 45.849 36.1459 47.3268 37.6491L58.0803 48.5898L53.7718 41.1276L47.7309 34.781ZM18.1898 32.1893L12.1795 34.1811L18.4562 45.052L22.5514 38.6393L18.1898 32.1893ZM30.6877 12.9157L23.1728 24.7271L22.9473 25.0816L22.5349 25.1691L14.784 26.7951L12.5178 31.9612L18.2803 30.0536L18.9984 29.8152L19.4225 30.4422L23.5546 36.5527L30.321 25.251L37.1274 13.8797L30.6877 12.9157ZM45.724 50.4628L45.3059 51.3287L42.5045 57.1337L45.6618 62.6034L52.1188 50.8428L52.327 50.4633L45.724 50.4628ZM42.3446 20.2136L42.077 20.2311L45.8071 26.1527L46.7176 26.0709L52.4804 25.5446L55.6359 19.3053L42.3446 20.2136ZM54.0152 26.9415L53.7648 27.4364L53.2128 27.487L48.4552 27.9203L60.8065 49.313L63.684 44.4754L57.0714 33.0236L57.3195 32.5381L60.6739 25.9967L57.3785 20.2899L54.0152 26.9415Z" fill="url(#paint0_linear_86_370)"/>
<defs>
<linearGradient id="paint0_linear_86_370" x1="10.3291" y1="33.3322" x2="65.0803" y2="43.0221" gradientUnits="userSpaceOnUse">
<stop stop-color="#F5C400"/>
<stop offset="0.5" stop-color="#E07010"/>
<stop offset="1" stop-color="#3A54A8"/>
</linearGradient>
</defs>
</svg>
