<svg width="20" height="20" viewBox="0 0 20 20" fill="none" xmlns="http://www.w3.org/2000/svg">
<path d="M8.70548 11.5171C9.05311 10.9168 9.89062 10.8351 10.3469 11.3592L14.057 15.6105C14.1006 15.6641 14.0852 15.7188 14.0725 15.7456C14.0598 15.7739 14.0257 15.8205 13.9537 15.8205H12.4807L12.4791 15.8238H1.5489C1.49404 15.8235 1.48044 15.7458 1.53263 15.7261L6.69295 13.8356C7.24254 13.635 7.70523 13.2467 7.9991 12.7394L8.70548 11.5171Z" fill="#36393D" fill-opacity="0.8"/>
<path d="M18.3336 6.65708H16.2502V13.3238H18.3336V15.8238H15.8336L12.9169 10.4071V6.65708H10.8336V4.15708H18.3336V6.65708Z" fill="#36393D" fill-opacity="0.8"/>
<path d="M6.47403 5.29803C6.5037 5.24717 6.58295 5.2814 6.56599 5.33791L5.59676 8.57603C5.39907 9.23574 5.48298 9.94767 5.82625 10.5438L6.5603 11.8182C6.87395 12.3636 6.62271 13.059 6.03214 13.2766L1.10701 15.0873L1.09155 15.0946C1.01949 15.1243 0.970064 15.0929 0.941807 15.0604C0.913621 15.0279 0.88838 14.9761 0.926345 14.9099L6.47403 5.29803Z" fill="#36393D" fill-opacity="0.8"/>
<path d="M7.81355 4.06024C7.84463 4.05742 7.90459 4.06035 7.94132 4.12535L8.80395 5.62111H8.80558L13.3791 13.5443C13.4102 13.5965 13.3382 13.6476 13.2986 13.6029L10.5634 10.4673C10.0887 9.92195 9.40037 9.60956 8.677 9.60956H7.42781C6.74981 9.60935 6.26282 8.95544 6.45776 8.30422L7.70369 4.14895C7.72628 4.08013 7.78245 4.06314 7.81355 4.06024Z" fill="#36393D" fill-opacity="0.8"/>
</svg>
